<?xml version="1.0" encoding="utf-8"?>
<!-- Generator: Adobe Illustrator 23.0.6, SVG Export Plug-In . SVG Version: 6.00 Build 0)  -->
<svg version="1.1" id="Layer_1" xmlns="http://www.w3.org/2000/svg" xmlns:xlink="http://www.w3.org/1999/xlink" x="0px" y="0px"
	 viewBox="0 0 238.8 46.8" style="enable-background:new 0 0 238.8 46.8;" xml:space="preserve">
<style type="text/css">
	.st0{fill:#6EB33F;}
	.st1{fill:#8A8C8E;}
</style>
<g id="logos">
	<g>
		<path class="st0" d="M42.7,2.7c-0.7,1.6-1.5,3.1-2.5,4.4C35.9,2.8,30,0,23.4,0C10.5,0,0,10.5,0,23.4c0,6.8,2.9,12.8,7.5,17.1
			l0.9,0.8c4.1,3.4,9.3,5.5,15.1,5.5c12.3,0,22.4-9.6,23.3-21.7C47.4,19.2,45.6,11.7,42.7,2.7z M10.9,40.7c-0.7,0.9-1.9,1-2.8,0.3
			c-0.9-0.7-1-1.9-0.3-2.8s1.9-1,2.8-0.3C11.4,38.6,11.5,39.9,10.9,40.7z M42.5,33.7c-5.7,7.7-18.1,5.1-26,5.5c0,0-1.4,0.1-2.8,0.3
			c0,0,0.5-0.2,1.2-0.5c5.5-1.9,8.2-2.3,11.5-4.1c6.3-3.2,12.6-10.3,13.9-17.7c-2.4,7-9.7,13.1-16.4,15.6
			c-4.6,1.7-12.8,3.3-12.8,3.3L10.8,36C5.2,33.2,5,21.1,15.2,17.2c4.5-1.7,8.7-0.8,13.6-1.9C34,14,40,10.2,42.4,5.1
			C45.1,13.3,48.4,25.9,42.5,33.7z"/>
		<g>
			<path class="st0" d="M60,32.6c-0.6-0.3-1-1-1-1.8c0-1.2,0.9-2.1,2.1-2.1c0.4,0,0.8,0.1,1.1,0.3c2.2,1.4,4.5,2.2,6.5,2.2
				c2.2,0,3.5-1,3.5-2.5v-0.1c0-1.8-2.4-2.4-5.1-3.2c-3.3-1-7.1-2.3-7.1-6.7v-0.1c0-4.3,3.6-6.9,8.1-6.9c2.4,0,4.9,0.7,7.1,1.8
				c0.7,0.4,1.3,1.1,1.3,2c0,1.2-1,2.1-2.2,2.1c-0.4,0-0.7-0.1-1-0.2c-1.8-1-3.7-1.5-5.3-1.5c-2,0-3.2,1-3.2,2.2v0.1
				c0,1.7,2.5,2.4,5.1,3.2c3.3,1,7,2.6,7,6.6v0.1c0,4.8-3.7,7.1-8.4,7.1C65.7,35.3,62.6,34.4,60,32.6z"/>
			<path class="st0" d="M79,14.4c0-1.4,1.1-2.6,2.6-2.6c1.4,0,2.6,1.2,2.6,2.6v1.5c1.7-2.4,4.1-4.2,7.7-4.2
				c5.3,0,10.5,4.2,10.5,11.8v0.1c0,7.5-5.2,11.8-10.5,11.8c-3.8,0-6.1-1.9-7.7-4v8c0,1.4-1.2,2.6-2.6,2.6c-1.4,0-2.6-1.1-2.6-2.6
				V14.4z M97.2,23.5L97.2,23.5c0-4.5-2.9-7.3-6.5-7.3c-3.5,0-6.6,2.9-6.6,7.2v0.1c0,4.3,3.1,7.2,6.6,7.2
				C94.2,30.8,97.2,28,97.2,23.5z"/>
			<path class="st0" d="M104.4,14.4c0-1.4,1.1-2.6,2.6-2.6c1.4,0,2.6,1.2,2.6,2.6v1.3c0.2-1.9,3.4-3.9,5.7-3.9
				c1.6,0,2.6,1.1,2.6,2.6c0,1.4-0.9,2.3-2.1,2.5c-3.7,0.6-6.2,3.9-6.2,8.3v7.5c0,1.4-1.2,2.6-2.6,2.6c-1.4,0-2.6-1.1-2.6-2.6
				L104.4,14.4L104.4,14.4z"/>
			<path class="st0" d="M119.9,14.4c0-1.4,1.1-2.6,2.6-2.6c1.4,0,2.6,1.2,2.6,2.6v18.3c0,1.4-1.2,2.6-2.6,2.6
				c-1.4,0-2.6-1.1-2.6-2.6V14.4z"/>
			<path class="st0" d="M127.7,14.4c0-1.4,1.1-2.6,2.6-2.6c1.4,0,2.6,1.2,2.6,2.6v1.1c1.4-2.1,3.6-3.7,7.1-3.7
				c5.1,0,8.1,3.4,8.1,8.7v12.2c0,1.4-1.1,2.6-2.6,2.6s-2.6-1.1-2.6-2.6V22c0-3.5-1.7-5.5-4.9-5.5c-3,0-5.1,2.1-5.1,5.6v10.6
				c0,1.4-1.2,2.6-2.6,2.6c-1.4,0-2.6-1.1-2.6-2.6L127.7,14.4L127.7,14.4z"/>
			<path class="st0" d="M170.9,11.7c-1.4,0-2.6,1.2-2.6,2.6v1.5c-1.7-2.4-4.1-4.2-7.7-4.2c-5.3,0-10.5,4.2-10.5,11.8v0.1
				c0,7.5,5.2,11.8,10.5,11.8c3.8,0,6.1-1.9,7.7-4c-0.2,4.1-2.8,6.2-7.1,6.2c-2.6,0-4.9-0.6-6.9-1.8c-0.2-0.1-0.6-0.2-0.9-0.2
				c-1.2,0-2.2,1-2.2,2.1c0,1,0.6,1.7,1.4,2.1c2.8,1.4,5.6,2,8.8,2c4.1,0,7.3-1,9.3-3c1.9-1.9,2.9-4.7,2.9-8.5V14.4
				C173.5,12.9,172.3,11.7,170.9,11.7z M161.8,30.8c-3.6,0-6.5-2.8-6.5-7.3v-0.1c0-4.4,2.9-7.2,6.5-7.2s6.6,2.9,6.6,7.2v0.1
				C168.4,27.8,165.3,30.8,161.8,30.8z"/>
			<path class="st0" d="M125.1,5.5c0,1.4-1.2,2.6-2.6,2.6c-1.4,0-2.6-1.2-2.6-2.6s1.2-2.6,2.6-2.6C123.9,2.9,125.1,4.1,125.1,5.5z"
				/>
		</g>
		<g>
			<path class="st0" d="M179.4,17.2c-1.4,0-2.7-1.2-2.7-2.7c0-1.5,1.2-2.7,2.7-2.7c1.5,0,2.7,1.2,2.7,2.7S180.9,17.2,179.4,17.2z
				 M179.4,12.3c-1.3,0-2.3,1-2.3,2.3c0,1.3,1,2.3,2.3,2.3c1.3,0,2.3-1,2.3-2.3C181.7,13.2,180.7,12.3,179.4,12.3z M180.2,16
				l-0.8-1.2h-0.5V16h-0.4v-3h1.3c0.5,0,1,0.4,1,0.9c0,0.7-0.6,0.9-0.8,0.9l0.8,1.2L180.2,16L180.2,16z M179.6,13.4h-0.8v1.1h0.8
				c0.2,0,0.5-0.2,0.5-0.5C180.2,13.6,179.9,13.4,179.6,13.4z"/>
		</g>
	</g>
	<g>
		<g>
			<g>
				<g>
					<path class="st1" d="M204.5,26.9H203v-1.4h1.5V26.9z M204.5,35.1H203V28h1.5V35.1z"/>
				</g>
				<g>
					<g>
						<path class="st1" d="M213.1,28l-2.1,6.1c-0.3,1-1,1.1-1.5,1.1c-0.8,0-1.2-0.3-1.5-1.1l-1.7-5.1h-0.7v-1.1h1.8l1.8,5.7
							c0.1,0.2,0.1,0.4,0.3,0.4c0.2,0,0.3-0.1,0.3-0.4l1.8-5.7L213.1,28L213.1,28z"/>
						<path class="st1" d="M216.7,28c1.9,0,3.2,1.3,3.2,3.1v1.1c0,1.8-1.4,3.1-3.2,3.1c-1.9,0-3.2-1.3-3.2-3.1V31
							C213.5,29.2,214.8,28,216.7,28 M216.7,34c1.2,0,1.8-0.9,1.8-1.9V31c0-1.1-0.7-1.9-1.8-1.9c-1.2,0-1.8,0.9-1.8,1.9v1.1
							C214.9,33.2,215.6,34,216.7,34"/>
						<path class="st1" d="M231.8,28.2c-0.7-0.2-1.9-0.3-2.8-0.3c-1.9,0-3.1,1.2-3.1,3.2v0.8c0,2,1.2,3.2,3.1,3.2c0,0,0.4,0,0.5,0
							v-1.2c0,0-0.5,0-0.5,0c-1.1,0-1.8-0.8-1.8-2V31c0-1.2,0.7-2,1.8-2c0.5,0,1.2,0,1.4,0.1h0.1V35h1.5v-6.6
							C232.1,28.3,232.1,28.2,231.8,28.2"/>
						<rect x="233.5" y="25.5" class="st1" width="1.5" height="9.6"/>
						<path class="st1" d="M197.9,25.5h-2.6v9.6h1.5v-8.3h0.9c0.2,0,0.3,0,0.5,0c1.4,0,2,0.6,2,1.6c0,0,0,0,0,0.1c0,1-0.5,1.6-2,1.6
							c-0.1,0-0.3,0-0.4,0c0,0.4,0,1.1,0,1.3c0.1,0,0.3,0,0.4,0c2.1,0,3.6-0.8,3.6-2.9c0,0,0-0.1,0-0.1
							C201.8,26.3,200.2,25.5,197.9,25.5"/>
						<path class="st1" d="M222.6,26.4V28h2.4v1.2h-2.4v4.1c0,0.6,0.4,0.7,1,0.7h1.4v1.2h-1.9c-1.4,0-2-0.6-2-1.8v-6.6L222.6,26.4z"
							/>
					</g>
				</g>
			</g>
			<path class="st1" d="M235.8,34.1c0-0.5,0.4-1,1-1s1,0.4,1,1c0,0.5-0.4,1-1,1S235.8,34.6,235.8,34.1z M236.9,33.2
				c-0.5,0-0.8,0.4-0.8,0.8s0.4,0.8,0.8,0.8c0.5,0,0.8-0.4,0.8-0.8S237.3,33.2,236.9,33.2z M236.6,34.6L236.6,34.6l-0.1-1.1h0.3
				c0.3,0,0.4,0.1,0.4,0.3c0,0.1-0.1,0.2-0.2,0.3l0.3,0.4h-0.1l-0.2-0.4h-0.2L236.6,34.6L236.6,34.6z M236.8,34.1
				c0.2,0,0.3-0.1,0.3-0.2c0-0.1-0.1-0.2-0.3-0.2h-0.2v0.5H236.8z"/>
		</g>
		<g>
			<path class="st1" d="M182.2,35.1v-6.9h0.8v2.7c0.4-0.5,1-0.9,1.7-0.9c1.3,0,2.2,1,2.2,2.6c0,1.6-0.9,2.6-2.2,2.6
				c-0.7,0-1.3-0.3-1.7-0.9V35L182.2,35.1L182.2,35.1z M184.5,34.5c1,0,1.6-0.8,1.6-1.9c0-1.1-0.6-1.9-1.6-1.9
				c-0.6,0-1.2,0.4-1.5,0.8v2.3C183.2,34.1,183.8,34.5,184.5,34.5z"/>
			<path class="st1" d="M187.8,36.3c0.1,0,0.3,0.1,0.4,0.1c0.3,0,0.6-0.1,0.7-0.5l0.3-0.8l-2.1-5.1h0.8l1.7,4.1l1.6-4.1h0.9l-2.5,6
				c-0.3,0.7-0.8,1-1.4,1c-0.1,0-0.4,0-0.6-0.1L187.8,36.3z"/>
		</g>
	</g>
</g>
</svg>
